<svg width="41" height="37" viewBox="0 0 41 37" fill="none" xmlns="http://www.w3.org/2000/svg">
<rect x="0.5" width="40" height="37" rx="9" fill="#F6F6F6"/>
<path d="M18.2778 9H11.6111C11.3164 9 11.0338 9.11706 10.8254 9.32544C10.6171 9.53381 10.5 9.81643 10.5 10.1111V16.7778C10.5 17.0725 10.6171 17.3551 10.8254 17.5635C11.0338 17.7718 11.3164 17.8889 11.6111 17.8889H18.2778C18.5725 17.8889 18.8551 17.7718 19.0635 17.5635C19.2718 17.3551 19.3889 17.0725 19.3889 16.7778V10.1111C19.3889 9.81643 19.2718 9.53381 19.0635 9.32544C18.8551 9.11706 18.5725 9 18.2778 9ZM17.1667 15.6667H12.7222V11.2222H17.1667V15.6667ZM29.3889 9H22.7222C22.4275 9 22.1449 9.11706 21.9365 9.32544C21.7282 9.53381 21.6111 9.81643 21.6111 10.1111V16.7778C21.6111 17.0725 21.7282 17.3551 21.9365 17.5635C22.1449 17.7718 22.4275 17.8889 22.7222 17.8889H29.3889C29.6836 17.8889 29.9662 17.7718 30.1746 17.5635C30.3829 17.3551 30.5 17.0725 30.5 16.7778V10.1111C30.5 9.81643 30.3829 9.53381 30.1746 9.32544C29.9662 9.11706 29.6836 9 29.3889 9ZM28.2778 15.6667H23.8333V11.2222H28.2778V15.6667ZM18.2778 20.1111H11.6111C11.3164 20.1111 11.0338 20.2282 10.8254 20.4365C10.6171 20.6449 10.5 20.9275 10.5 21.2222V27.8889C10.5 28.1836 10.6171 28.4662 10.8254 28.6746C11.0338 28.8829 11.3164 29 11.6111 29H18.2778C18.5725 29 18.8551 28.8829 19.0635 28.6746C19.2718 28.4662 19.3889 28.1836 19.3889 27.8889V21.2222C19.3889 20.9275 19.2718 20.6449 19.0635 20.4365C18.8551 20.2282 18.5725 20.1111 18.2778 20.1111ZM17.1667 26.7778H12.7222V22.3333H17.1667V26.7778ZM26.0556 20.1111C23.6044 20.1111 21.6111 22.1044 21.6111 24.5556C21.6111 27.0067 23.6044 29 26.0556 29C28.5067 29 30.5 27.0067 30.5 24.5556C30.5 22.1044 28.5067 20.1111 26.0556 20.1111ZM26.0556 26.7778C24.83 26.7778 23.8333 25.7811 23.8333 24.5556C23.8333 23.33 24.83 22.3333 26.0556 22.3333C27.2811 22.3333 28.2778 23.33 28.2778 24.5556C28.2778 25.7811 27.2811 26.7778 26.0556 26.7778Z" fill="#8B8C8E"/>
</svg>
