<svg width="41" height="37" viewBox="0 0 41 37" fill="none" xmlns="http://www.w3.org/2000/svg">
<rect x="0.5" width="40" height="37" rx="9" fill="#F6F6F6"/>
<path d="M24.86 21C24.94 20.34 25 19.68 25 19C25 18.32 24.94 17.66 24.86 17H28.24C28.4 17.64 28.5 18.31 28.5 19C28.5 19.69 28.4 20.36 28.24 21M23.09 26.56C23.69 25.45 24.15 24.25 24.47 23H27.42C26.4512 24.6683 24.9141 25.932 23.09 26.56ZM22.84 21H18.16C18.06 20.34 18 19.68 18 19C18 18.32 18.06 17.65 18.16 17H22.84C22.93 17.65 23 18.32 23 19C23 19.68 22.93 20.34 22.84 21ZM20.5 26.96C19.67 25.76 19 24.43 18.59 23H22.41C22 24.43 21.33 25.76 20.5 26.96ZM16.5 15H13.58C14.5389 13.3272 16.0748 12.0615 17.9 11.44C17.3 12.55 16.85 13.75 16.5 15ZM13.58 23H16.5C16.85 24.25 17.3 25.45 17.9 26.56C16.0786 25.9317 14.5448 24.6677 13.58 23ZM12.76 21C12.6 20.36 12.5 19.69 12.5 19C12.5 18.31 12.6 17.64 12.76 17H16.14C16.06 17.66 16 18.32 16 19C16 19.68 16.06 20.34 16.14 21M20.5 11.03C21.33 12.23 22 13.57 22.41 15H18.59C19 13.57 19.67 12.23 20.5 11.03ZM27.42 15H24.47C24.157 13.7615 23.6936 12.5659 23.09 11.44C24.93 12.07 26.46 13.34 27.42 15ZM20.5 9C14.97 9 10.5 13.5 10.5 19C10.5 21.6522 11.5536 24.1957 13.4289 26.0711C14.3575 26.9997 15.4599 27.7362 16.6732 28.2388C17.8864 28.7413 19.1868 29 20.5 29C23.1522 29 25.6957 27.9464 27.5711 26.0711C29.4464 24.1957 30.5 21.6522 30.5 19C30.5 17.6868 30.2413 16.3864 29.7388 15.1732C29.2362 13.9599 28.4997 12.8575 27.5711 11.9289C26.6425 11.0003 25.5401 10.2638 24.3268 9.7612C23.1136 9.25866 21.8132 9 20.5 9Z" fill="#8B8C8E"/>
</svg>
