<svg width="40" height="37" viewBox="0 0 40 37" fill="none" xmlns="http://www.w3.org/2000/svg">
<rect width="40" height="37" rx="9" fill="#F6F6F6"/>
<path d="M29.156 19.6967L21.9921 14.9568V11.2473C21.9921 10.0108 20.9813 9 19.7448 9C18.5084 9 17.4975 10.0108 17.4975 11.2473V14.9568L10.3337 19.6967C10.1276 19.8243 10 20.05 10 20.2953V21.944C10 22.1697 10.0981 22.3954 10.2846 22.523C10.471 22.6702 10.7164 22.6898 10.9225 22.6211L17.4484 20.4622V24.2306L15.0834 25.8989C14.8969 26.0461 14.7792 26.2522 14.7792 26.4975V28.2738C14.7792 28.4995 14.9068 28.7252 15.0834 28.8724C15.211 28.9509 15.3484 29 15.4956 29C15.5741 29 15.6624 28.9804 15.7409 28.9607L19.6957 27.5182L23.6505 28.8528C23.8763 28.9313 24.102 28.8921 24.3081 28.7547C24.4945 28.6075 24.6123 28.4014 24.6123 28.1757V26.527C24.6123 26.3013 24.4847 26.0756 24.3081 25.9284L21.943 24.2601V20.4917L28.469 22.6506C28.6947 22.7291 28.9204 22.6899 29.1068 22.5525C29.2933 22.4151 29.3914 22.1992 29.3914 21.9735V20.3248C29.4601 20.05 29.3523 19.8243 29.156 19.6967ZM28.0569 20.9529H28.0176L21.4917 18.7939C21.266 18.7154 21.0403 18.7547 20.8538 18.8921C20.6674 19.0393 20.5692 19.2454 20.5692 19.4711V24.6232C20.5692 24.8489 20.6968 25.0746 20.8734 25.2218L23.2385 26.8901V27.1551L20 26.0657C19.8528 26.0068 19.6663 26.0265 19.5289 26.0657L16.2513 27.2433V26.8901L18.6163 25.2217C18.8027 25.0745 18.9205 24.8685 18.9205 24.6231V19.471C18.9205 19.2453 18.8224 19.0196 18.6359 18.892C18.4494 18.7448 18.2041 18.7252 17.998 18.7939L11.4524 20.9528V20.6879L18.6163 15.9479C18.8224 15.8204 18.95 15.5947 18.95 15.3493V11.2473C18.95 10.7958 19.3229 10.4426 19.7547 10.4426C20.1865 10.4426 20.5594 10.8155 20.5594 11.2473V15.3493C20.5594 15.5947 20.687 15.8204 20.893 15.9479L28.0569 20.6879L28.0569 20.9529Z" fill="#8B8C8E"/>
</svg>
