<svg width="40" height="37" viewBox="0 0 40 37" fill="none" xmlns="http://www.w3.org/2000/svg">
<rect width="40" height="37" rx="9" fill="#F6F6F6"/>
<path d="M25.0982 9H14.267H14.2671C13.6659 9 13.0892 9.23878 12.664 9.664C12.239 10.0892 12 10.6658 12 11.267V28.2443C12.0023 28.4388 12.0796 28.6249 12.2158 28.764C12.3518 28.903 12.5362 28.9842 12.7307 28.9905C12.9251 28.997 13.1145 28.9281 13.2594 28.7985L15.0226 27.1613L16.8362 28.7985C16.9748 28.9223 17.1542 28.9909 17.3401 28.9909C17.5259 28.9909 17.7052 28.9223 17.8439 28.7985L19.6826 27.1613L21.4962 28.7985C21.6347 28.9223 21.8141 28.9909 21.9999 28.9909C22.1858 28.9909 22.3652 28.9223 22.5037 28.7985L24.3173 27.1613L26.0805 28.7985C26.2177 28.9257 26.3973 28.9975 26.5844 29L26.8866 28.9244C27.0194 28.8665 27.1327 28.7716 27.2132 28.6509C27.2935 28.5303 27.3376 28.3893 27.3399 28.2443V11.267C27.3401 10.6701 27.1046 10.0973 26.6849 9.67283C26.2651 9.24851 25.695 9.00672 25.0981 9.00006L25.0982 9ZM25.8539 26.5063L24.8464 25.5743C24.7078 25.4505 24.5284 25.382 24.3427 25.382C24.1568 25.382 23.9774 25.4505 23.8388 25.5743L22.0252 27.2115L20.1864 25.5743C20.048 25.4505 19.8686 25.382 19.6827 25.382C19.4968 25.382 19.3174 25.4505 19.179 25.5743L17.3654 27.2115L15.5518 25.5743C15.4131 25.4505 15.2339 25.382 15.048 25.382C14.8621 25.382 14.6828 25.4505 14.5443 25.5743L13.5368 26.5063L13.5367 11.267C13.5367 11.0667 13.6163 10.8745 13.7581 10.7327C13.8997 10.5911 14.0919 10.5115 14.2924 10.5115H25.1236C25.3239 10.5115 25.5161 10.5911 25.6579 10.7327C25.7995 10.8745 25.8793 11.0667 25.8793 11.267L25.8539 26.5063Z" fill="#8B8C8E"/>
<path d="M22.806 16.6323H16.5591C16.2892 16.6323 16.0397 16.7764 15.9048 17.0103C15.7697 17.2439 15.7697 17.5321 15.9048 17.7658C16.0397 17.9997 16.2892 18.1437 16.5591 18.1437H22.806C23.0759 18.1437 23.3254 17.9997 23.4603 17.7658C23.5954 17.5321 23.5954 17.2439 23.4603 17.0103C23.3254 16.7764 23.0759 16.6323 22.806 16.6323Z" fill="#8B8C8E"/>
<path d="M16.6599 15.0958C16.8602 15.0958 17.0524 15.0162 17.1942 14.8745C17.3358 14.7328 17.4156 14.5405 17.4156 14.34V12.6273C17.4156 12.3572 17.2715 12.1079 17.0376 11.9728C16.804 11.8378 16.5158 11.8378 16.2819 11.9728C16.0483 12.1079 15.9042 12.3572 15.9042 12.6273V14.34C15.9042 14.5405 15.9838 14.7327 16.1256 14.8745C16.2672 15.0162 16.4594 15.0958 16.6599 15.0958Z" fill="#8B8C8E"/>
<path d="M19.6826 15.0958C19.8831 15.0958 20.0753 15.0162 20.2169 14.8745C20.3587 14.7328 20.4383 14.5405 20.4383 14.34V12.6273C20.4383 12.3572 20.2942 12.1079 20.0603 11.9728C19.8267 11.8378 19.5385 11.8378 19.3048 11.9728C19.071 12.1079 18.9269 12.3572 18.9269 12.6273V14.34C18.9269 14.5405 19.0065 14.7327 19.1483 14.8745C19.2899 15.0162 19.4821 15.0958 19.6826 15.0958Z" fill="#8B8C8E"/>
<path d="M22.7053 15.0958C22.9058 15.0958 23.098 15.0162 23.2396 14.8745C23.3814 14.7328 23.461 14.5405 23.461 14.34V12.6273C23.461 12.3572 23.3169 12.1079 23.0832 11.9728C22.8494 11.8378 22.5612 11.8378 22.3275 11.9728C22.0937 12.1079 21.9496 12.3572 21.9496 12.6273V14.34C21.9496 14.5405 22.0294 14.7327 22.171 14.8745C22.3128 15.0162 22.505 15.0958 22.7053 15.0958Z" fill="#8B8C8E"/>
<path d="M22.806 19.4031H16.5591C16.2892 19.4031 16.0397 19.547 15.9048 19.7808C15.7697 20.0147 15.7697 20.3027 15.9048 20.5365C16.0397 20.7704 16.2892 20.9143 16.5591 20.9143H22.806C23.0759 20.9143 23.3254 20.7704 23.4603 20.5365C23.5954 20.3027 23.5954 20.0147 23.4603 19.7808C23.3254 19.547 23.0759 19.4031 22.806 19.4031Z" fill="#8B8C8E"/>
<path d="M22.806 22.1738H16.5591C16.2892 22.1738 16.0397 22.3179 15.9048 22.5518C15.7697 22.7855 15.7697 23.0736 15.9048 23.3075C16.0397 23.5412 16.2892 23.6852 16.5591 23.6852H22.806C23.0759 23.6852 23.3254 23.5412 23.4603 23.3075C23.5954 23.0736 23.5954 22.7855 23.4603 22.5518C23.3254 22.3179 23.0759 22.1738 22.806 22.1738Z" fill="#8B8C8E"/>
</svg>
