<svg width="40" height="37" viewBox="0 0 40 37" fill="none" xmlns="http://www.w3.org/2000/svg">
<rect width="40" height="37" rx="9" fill="#F6F6F6"/>
<path fill-rule="evenodd" clip-rule="evenodd" d="M21.2757 18.479C21.2757 18.7697 21.5115 19.0054 21.8022 19.0054C22.0931 19.0054 22.3288 18.7697 22.3288 18.479C22.3028 17.9754 22.1037 17.4962 21.7653 17.1225C21.4269 16.7487 20.9698 16.5033 20.4713 16.4279V15.8434C20.4713 15.5526 20.2356 15.3169 19.9447 15.3169C19.654 15.3169 19.4182 15.5526 19.4182 15.8434V16.43C18.9197 16.5056 18.4626 16.751 18.1241 17.1246C17.7857 17.4984 17.5867 17.9775 17.5607 18.4811C17.5868 18.9845 17.7858 19.4637 18.1242 19.8374C18.4626 20.2112 18.9197 20.4566 19.4182 20.5322V22.5968C19.1995 22.5418 19.004 22.4187 18.8597 22.2454C18.7154 22.072 18.6297 21.8575 18.6152 21.6324C18.6152 21.3416 18.3795 21.1059 18.0887 21.1059C17.7978 21.1059 17.5621 21.3416 17.5621 21.6324C17.5881 22.136 17.7871 22.6152 18.1255 22.9888C18.4639 23.3626 18.9211 23.608 19.4196 23.6835V24.2679C19.4196 24.5588 19.6553 24.7945 19.9462 24.7945C20.237 24.7945 20.4727 24.5588 20.4727 24.2679V23.6835C20.9712 23.608 21.4284 23.3626 21.7668 22.9888C22.1052 22.6152 22.3042 22.136 22.3302 21.6324C22.3042 21.1289 22.1052 20.6497 21.7668 20.2759C21.4284 19.9023 20.9712 19.6568 20.4727 19.5812V17.5166C20.6912 17.5715 20.8865 17.6941 21.0309 17.8671C21.1752 18.04 21.2608 18.2542 21.2757 18.479ZM19.4182 19.4435C19.1995 19.3881 19.0042 19.265 18.8599 19.0918C18.7155 18.9185 18.6299 18.704 18.6152 18.479C18.6296 18.2538 18.7151 18.0392 18.8594 17.8658C19.0037 17.6924 19.1994 17.5694 19.4182 17.5145L19.4182 19.4435ZM21.2757 21.6302C21.2611 21.8553 21.1757 22.0699 21.0313 22.2433C20.887 22.4166 20.6914 22.5397 20.4727 22.5947V20.6658C20.6912 20.721 20.8865 20.8439 21.0309 21.0171C21.1752 21.1903 21.2608 21.4046 21.2756 21.6295L21.2757 21.6302Z" fill="#8B8C8E"/>
<path fill-rule="evenodd" clip-rule="evenodd" d="M24.684 9.00016C23.9328 9.00016 23.195 9.2011 22.5476 9.58223C21.9002 9.96336 21.3666 10.5108 21.0019 11.1677C19.0186 10.9323 17.0133 11.3673 15.3057 12.4035C13.5981 13.4398 12.2863 15.0175 11.5793 16.8856C10.8723 18.7536 10.8106 20.8045 11.4042 22.7116C11.9977 24.6187 13.2124 26.2724 14.8546 27.4092C16.4968 28.5461 18.4723 29.1007 20.4663 28.9849C22.4603 28.8692 24.3581 28.0893 25.8579 26.7699C27.3574 25.4506 28.3724 23.6675 28.7411 21.7045C29.1098 19.7414 28.8111 17.7114 27.8926 15.9377C28.5904 15.1167 28.9468 14.0594 28.8888 12.9837C28.8305 11.9078 28.3622 10.8951 27.5801 10.1541C26.798 9.41306 25.7616 9 24.684 9L24.684 9.00016ZM19.946 27.9507C17.8648 27.9309 15.8755 27.0903 14.4111 25.6116C12.9463 24.133 12.1247 22.1359 12.1247 20.0546C12.1247 17.9734 12.9463 15.9762 14.4111 14.4976C15.8756 13.019 17.8649 12.1784 19.946 12.1586C20.166 12.1586 20.3832 12.1678 20.599 12.185C20.3215 13.2992 20.5108 14.4785 21.123 15.45C21.735 16.4217 22.7171 17.1013 23.842 17.3322C24.9667 17.5629 26.1371 17.3249 27.0824 16.673C27.8456 18.2846 28.0411 20.107 27.637 21.8437C27.2328 23.5805 26.2527 25.1293 24.8562 26.238C23.4597 27.3468 21.7292 27.9506 19.9459 27.9506L19.946 27.9507ZM24.684 16.3693C23.8463 16.3693 23.0431 16.0365 22.4507 15.4442C21.8584 14.852 21.5256 14.0485 21.5256 13.2109C21.5256 12.3732 21.8584 11.5698 22.4507 10.9775C23.0431 10.3852 23.8463 10.0524 24.684 10.0524C25.5217 10.0524 26.3251 10.3853 26.9174 10.9775C27.5098 11.5698 27.8424 12.3732 27.8424 13.2109C27.8423 14.0486 27.5095 14.852 26.9172 15.4442C26.3249 16.0367 25.5217 16.3696 24.684 16.3701V16.3693Z" fill="#8B8C8E"/>
<path fill-rule="evenodd" clip-rule="evenodd" d="M26.17 12.6049H25.2098V11.6432C25.2098 11.3524 24.974 11.1167 24.6833 11.1167C24.3924 11.1167 24.1567 11.3524 24.1567 11.6432V12.6049H23.1972C22.9065 12.6049 22.6708 12.8406 22.6708 13.1314C22.6708 13.4221 22.9065 13.658 23.1972 13.658H24.1574L24.1575 14.6181C24.1575 14.9088 24.3932 15.1446 24.684 15.1446C24.9748 15.1446 25.2105 14.9089 25.2105 14.6181V13.658H26.1707C26.4616 13.658 26.6972 13.4221 26.6972 13.1314C26.6972 12.8405 26.4616 12.6049 26.1707 12.6049H26.17Z" fill="#8B8C8E"/>
</svg>
